<svg width="423" height="381" xmlns="http://www.w3.org/2000/svg" xmlns:xlink="http://www.w3.org/1999/xlink" xml:space="preserve" overflow="hidden"><g transform="translate(-1956 -1073)"><path d="M1970 1370C1970 1331.34 2058.42 1300 2167.5 1300 2276.58 1300 2365 1331.34 2365 1370 2365 1408.66 2276.58 1440 2167.5 1440 2058.42 1440 1970 1408.66 1970 1370Z" stroke="#172C51" stroke-width="27.5" stroke-miterlimit="8" stroke-dasharray="110 82.5" fill="none" fill-rule="evenodd"/><g><g><g><path d="M2084.06 1100.84C2078.22 1100.84 2073.75 1105.31 2073.75 1111.16L2073.75 1375.84 2094.38 1375.84 2094.38 1111.16C2094.38 1105.31 2089.91 1100.84 2084.06 1100.84Z"/><path d="M2151.78 1100.16C2121.53 1100.16 2108.12 1110.12 2108.12 1110.12L2108.12 1223.91C2108.12 1223.91 2121.19 1213.94 2151.78 1213.94 2188.22 1213.94 2223.97 1233.87 2266.25 1214.62L2266.25 1100.84C2212.97 1116.66 2188.22 1100.16 2151.78 1100.16Z"/></g></g></g></g></svg>