<svg width="446" height="418" xmlns="http://www.w3.org/2000/svg" xmlns:xlink="http://www.w3.org/1999/xlink" xml:space="preserve" overflow="hidden"><g transform="translate(-890 -1073)"><path d="M900.5 1378C900.5 1321.39 995.64 1275.5 1113 1275.5 1230.36 1275.5 1325.5 1321.39 1325.5 1378 1325.5 1434.61 1230.36 1480.5 1113 1480.5 995.64 1480.5 900.5 1434.61 900.5 1378Z" stroke="#FFFFFF" stroke-width="20.625" stroke-miterlimit="8" stroke-dasharray="82.5 61.875" fill="none" fill-rule="evenodd"/><g><g><g><path d="M1074.06 1100.84C1068.22 1100.84 1063.75 1105.31 1063.75 1111.16L1063.75 1375.84 1084.38 1375.84 1084.38 1111.16C1084.38 1105.31 1079.91 1100.84 1074.06 1100.84Z" fill="#FFFFFF"/><path d="M1141.78 1100.16C1111.53 1100.16 1098.13 1110.12 1098.13 1110.12L1098.13 1223.91C1098.13 1223.91 1111.19 1213.94 1141.78 1213.94 1178.22 1213.94 1213.97 1233.87 1256.25 1214.62L1256.25 1100.84C1202.97 1116.66 1178.22 1100.16 1141.78 1100.16Z" fill="#FFFFFF"/></g></g></g></g></svg>