<svg width="446" height="418" xmlns="http://www.w3.org/2000/svg" xmlns:xlink="http://www.w3.org/1999/xlink" xml:space="preserve" overflow="hidden"><g transform="translate(-1930 -1073)"><path d="M1940.5 1378C1940.5 1321.39 2035.64 1275.5 2153 1275.5 2270.36 1275.5 2365.5 1321.39 2365.5 1378 2365.5 1434.61 2270.36 1480.5 2153 1480.5 2035.64 1480.5 1940.5 1434.61 1940.5 1378Z" stroke="#000000" stroke-width="20.625" stroke-miterlimit="8" stroke-dasharray="82.5 61.875" fill="none" fill-rule="evenodd"/><g><g><g><path d="M2114.06 1100.84C2108.22 1100.84 2103.75 1105.31 2103.75 1111.16L2103.75 1375.84 2124.38 1375.84 2124.38 1111.16C2124.38 1105.31 2119.91 1100.84 2114.06 1100.84Z"/><path d="M2181.78 1100.16C2151.53 1100.16 2138.12 1110.12 2138.12 1110.12L2138.12 1223.91C2138.12 1223.91 2151.19 1213.94 2181.78 1213.94 2218.22 1213.94 2253.97 1233.87 2296.25 1214.62L2296.25 1100.84C2242.97 1116.66 2218.22 1100.16 2181.78 1100.16Z"/></g></g></g></g></svg>